<?xml version="1.0" encoding="utf-8"?>
<!-- Generator: Adobe Illustrator 27.2.0, SVG Export Plug-In . SVG Version: 6.00 Build 0)  -->
<svg version="1.1" id="Capa_1" xmlns="http://www.w3.org/2000/svg" xmlns:xlink="http://www.w3.org/1999/xlink" x="0px" y="0px"
	 viewBox="0 0 1920 1080" style="enable-background:new 0 0 1920 1080;" xml:space="preserve">
<style type="text/css">
	.st0{fill:#FFFFFF;}
	.st1{fill:none;}
</style>
<path d="M1174.6,1080c-22.5,0-44.9,0-67.4,0c-2.7-0.6-5.4-1.5-8.1-1.7C973,1068,863.4,1019.6,771.3,932.7
	c-86.7-81.8-140.6-181.9-161.2-299.6c-3.4-19.6-5.5-39.5-8.2-59.3c0-22.5,0-45,0-67.5c3.4-23.9,6-48,10.5-71.7
	C652.7,219.3,831.8,43.8,1047,8.3c20-3.3,40.2-5.6,60.2-8.3c22.5,0,44.9,0,67.4,0c15.6,2,31.2,3.7,46.8,6.1
	C1351,26,1460.3,84.8,1545.6,183.8c120.4,139.8,159.4,302,119.3,481.9c-46.2,207-221.4,370.9-431.1,406
	C1214.2,1075.1,1194.4,1077.3,1174.6,1080z M747.1,871.2c1.1-0.8,2.2-1.6,3.2-2.5c77.7-77.8,155.3-155.5,232.7-233.5
	c2.4-2.4,3-7.9,2.4-11.7c-3-21.1-7.2-42.1-9.8-63.3c-1.4-11.8,3.5-15.8,15.3-15.9c4.7,0,9.5,0,15.5,0c-1.5-2.7-2.2-4.3-3.1-5.7
	c-19.2-30.6-26.8-64.5-27.8-100.2c-0.4-13,3.5-16.7,16.8-16.6c4.4,0,8.7,0,14.6,0c-21-32.2-29.9-66.4-31.4-102.8
	c-0.7-16.6,2.7-20.9,18.8-19.7c21.5,1.6,42.9,4.3,64.7,6.6c0,0.1,0.5-0.8,0.7-1.8c0.5-2.4,0.9-4.8,1.3-7.3
	c9.7-52,26.9-101.1,59.5-143.5c18-23.4,23.1-23.3,41.3,0.4c30.1,39.2,46.7,84.4,57.1,132.2c1.6,7.3,2.9,14.7,3.9,19.3
	c29.6-2.2,57.4-4.6,85.3-6.1c7.5-0.4,13.1-2,18.5-7.5c45.7-46.2,91.6-92.1,137.6-138c2.7-2.7,6.7-3.9,10.5-6
	C1278.8-21.6,961.9-26.9,761.5,191.4C569.4,400.5,595.4,698.8,747.1,871.2z M1278.9,789.3c2.3,0,6.7,0,11.2,0
	c12.4,0,16.6,4.2,16.2,16.5c-0.2,6.7-0.5,13.4-1.2,20c-5.4,50.4-25.5,93.1-66.8,124.1c-25,18.8-53.6,28.3-85.5,31.5
	c0,4.3,0,8.1,0,11.9c0,14.1,0.1,28.1-0.1,42.2c-0.1,7.5-3.2,13.3-11.6,13.4c-8.4,0.1-11.6-5.4-12-13c-0.2-4.2-0.1-8.4-0.1-12.6
	c0-13.9,0-27.9,0-41.3c-2.2-0.7-2.8-1-3.5-1.1c-84.9-8.7-149-73.8-150.1-176.8c-0.1-10.4,4.3-14.6,14.8-14.8c5-0.1,10.1,0,15.8,0
	c-6.2-11.7-11.8-22.3-16.8-31.7c-59.4,59.6-118.6,118.9-177.8,178.2c182.5,158.9,489.2,173.9,693.6-31.1
	c205.6-206.1,188.5-513.9,29.9-696c-2,1.8-4.2,3.6-6.1,5.5c-72.2,72.3-144.4,144.6-216.3,217.1c-3.7,3.7-6.1,10.2-6.5,15.6
	c-2.4,29.6-11.1,57-25.4,82.9c-2.5,4.5-5.1,8.9-8.1,14.3c7.2,0,13.1-0.1,19,0c11.1,0.1,15.2,4.1,15,15.4
	c-0.8,35.3-8.1,68.9-26.5,99.6c-1.3,2.2-2.3,4.6-3.7,7.6c5.1,0,8.9,0,12.7,0c14.2-0.1,18.4,3.9,17.4,18.3c-1,13.3-1.3,27-4.9,39.6
	C1295.1,746.6,1286.5,767.9,1278.9,789.3z M792,916.1c241.8-242.2,483-484,724.3-725.7c-8.6-8.7-17.7-17.8-25.7-25.8
	c-241.5,242-482.9,483.9-724.3,725.8C774.3,898.4,783.2,907.4,792,916.1z M1141.3,165.4c-2.1,2.3-3.4,3.5-4.4,4.8
	c-30.5,42.2-46.5,90-54.3,140.9c-0.4,2.3,1.4,6.4,3.4,7.5c22.5,11.8,40.6,28.2,54.9,51.2c14.3-23.1,32.3-40.2,55.5-51.6
	c1.9-1,3.2-6,2.7-8.7c-2.9-15.5-5.6-31.1-10-46.2C1178.9,228.4,1164.8,195.3,1141.3,165.4z M1281.1,813.6
	c-29,1.1-56.4,6.1-81.2,20.7c-42.2,24.8-58,67.5-45.6,122.4C1223,955.1,1287.8,882.6,1281.1,813.6z M1128.4,956.6
	c0-22.4,0-44.8-0.1-67.1c0-1.6-1-3.3-1.7-4.9c-20.5-47.5-72.8-72-126.1-69.5C995.1,883.5,1060.8,956.6,1128.4,956.6z M999.5,323.6
	c2.3,37.2,13.1,70.3,37.8,97.9c3,3.3,8,5.5,12.5,6.6c26.9,7.1,51.3,18.8,71.2,38.7c2.1,2.1,4.3,4.1,7.7,7.2
	c0-25.9,0.1-50.1-0.2-74.2c0-3.3-2-6.7-3.5-9.8C1104.1,345.9,1054.7,322.6,999.5,323.6z M1282.2,567.6c-8.2,0.7-14.5,1.1-20.7,1.9
	c-30.5,3.9-59.1,12.6-81.7,34.7c-17.3,16.9-29.7,36-27.2,62.2c1.4,14.6,0.2,29.5,0.3,44.3c0,2.5,0.6,5,1.2,9
	c20-22.9,43.7-37.2,71.1-43.7c13.6-3.3,22.2-10.6,29.5-21.3C1272.3,628.8,1280.9,600.1,1282.2,567.6z M1282.5,689.7
	c-15.7,2.4-29.7,3.7-43.3,6.7c-27.4,6.1-50.5,19.3-69.3,40.9c-16.8,19.3-18.4,41.5-17.2,65.1c0.6,12.7,0.1,25.5,0.1,41.5
	c24.1-27.5,52.3-41.1,84-48.6c2.2-0.5,4.6-2,6.2-3.6C1268.9,763.5,1280,729.6,1282.5,689.7z M1129,840.3c0-17.5-1.2-35,0.3-52.4
	c1.8-21.9-7.2-38.8-20.7-54.3c-15-17.2-34-28.1-55.6-34.3c-3.2-0.9-8.4,0.5-10.9,2.8c-10.4,9.5-20.2,19.5-29.8,29.8
	c-2.1,2.3-4.2,7.6-3,9.7c9.3,16.8,19.2,33.2,29.3,49.5c1.4,2.3,5.1,3.7,8,4.4C1077.7,803.1,1105.2,816.7,1129,840.3z M1117.5,501.1
	c-19.8-35.6-69.6-56.3-118.1-54.8c0.9,7.6,1.4,15.2,2.7,22.7c4.8,27.9,15.5,53.1,34.4,74.5c7.6,8.6,25.6,12.6,31.4,6.9
	C1084.3,534.2,1100.7,517.8,1117.5,501.1z M1292.1,322.8c-30.1,0.9-60.5,3.2-87.7,18.1c-32.7,17.8-55,43-51.7,83.8
	c0.8,10.1,0.1,20.3,0.2,30.5c0,2.5,0.7,4.9,0.8,6.2C1199.9,415.2,1245.8,369.2,1292.1,322.8z M1128.3,715.7c0-31.4,0-64.6,0-96.8
	c-19.9,20-40,40.1-58.3,58.4C1088.5,689.5,1108.5,702.7,1128.3,715.7z M1279.6,465c-35.8,30.2-125,123.1-125.7,132.1
	c22.4-25.4,50-39.5,81.3-46.9c2.5-0.6,5-2.7,6.6-4.8C1260.3,522,1273.5,496.1,1279.6,465z M1005.5,610.1
	c12.7-12.8,24.5-24.6,37-37.1c-13.8-1.8-27.8-3.6-44.1-5.7C1001,583,1003.3,596.6,1005.5,610.1z"/>
<path class="st0" d="M1174.6,1080c19.7-2.7,39.6-4.9,59.2-8.2c209.7-35.2,384.9-199,431.1-406c40.1-179.9,1.1-342.2-119.3-481.9
	C1460.3,84.8,1351,26,1221.4,6.1c-15.5-2.4-31.2-4.1-46.8-6.1c169.1,0,338.2,0,507.4,0c0,360,0,720,0,1080
	C1512.9,1080,1343.8,1080,1174.6,1080z"/>
<path class="st0" d="M602,573.8c2.7,19.8,4.7,39.7,8.2,59.3c20.6,117.7,74.5,217.8,161.2,299.6c92.1,86.9,201.6,135.3,327.8,145.5
	c2.7,0.2,5.4,1.2,8.1,1.7c-168.4,0-336.8,0-505.3,0C602,911.2,602,742.5,602,573.8z"/>
<path class="st0" d="M1107.3,0c-20.1,2.7-40.2,5-60.2,8.3c-215.2,35.5-394.3,211-434.6,426.2c-4.4,23.7-7,47.8-10.5,71.7
	c0-168.6,0-337.1,0-506.2C770.4,0,938.8,0,1107.3,0z"/>
<path class="st1" d="M747.1,871.2c-151.7-172.3-177.7-470.6,14.4-679.8c200.4-218.3,517.4-212.9,713.2-43.8c-3.7,2.1-7.8,3.3-10.5,6
	c-46,45.8-92,91.8-137.6,138c-5.4,5.5-11,7.1-18.5,7.5c-27.9,1.5-55.8,3.9-85.3,6.1c-0.9-4.6-2.3-12-3.9-19.3
	c-10.3-47.8-27-93-57.1-132.2c-18.2-23.7-23.3-23.8-41.3-0.4c-32.6,42.4-49.8,91.4-59.5,143.5c-0.5,2.4-0.8,4.9-1.3,7.3
	c-0.2,1-0.7,1.9-0.7,1.8c-21.8-2.3-43.2-5-64.7-6.6c-16.1-1.2-19.5,3.2-18.8,19.7c1.5,36.4,10.3,70.6,31.4,102.8
	c-5.9,0-10.2,0-14.6,0c-13.3,0-17.2,3.6-16.8,16.6c1.1,35.7,8.6,69.6,27.8,100.2c0.9,1.4,1.6,2.9,3.1,5.7c-6,0-10.7,0-15.5,0
	c-11.8,0.1-16.7,4.2-15.3,15.9c2.5,21.2,6.8,42.1,9.8,63.3c0.5,3.8,0,9.3-2.4,11.7c-77.4,78-155.1,155.8-232.7,233.5
	C749.3,869.6,748.2,870.3,747.1,871.2z"/>
<path class="st1" d="M1278.9,789.3c7.6-21.4,16.2-42.7,22.5-64.7c3.6-12.6,3.9-26.3,4.9-39.6c1-14.4-3.2-18.3-17.4-18.3
	c-3.8,0-7.7,0-12.7,0c1.5-3,2.4-5.4,3.7-7.6c18.4-30.6,25.8-64.2,26.5-99.6c0.2-11.3-3.8-15.3-15-15.4c-5.9-0.1-11.8,0-19,0
	c3-5.4,5.6-9.8,8.1-14.3c14.3-25.8,23-53.3,25.4-82.9c0.4-5.4,2.8-11.9,6.5-15.6c71.9-72.6,144.2-144.8,216.3-217.1
	c1.9-1.9,4.1-3.7,6.1-5.5c158.6,182.1,175.7,489.9-29.9,696c-204.4,204.9-511.1,189.9-693.6,31.1c59.2-59.3,118.4-118.6,177.8-178.2
	c5,9.4,10.6,20,16.8,31.7c-5.7,0-10.7-0.1-15.8,0c-10.5,0.2-14.9,4.4-14.8,14.8c1.1,102.9,65.2,168.1,150.1,176.8
	c0.7,0.1,1.3,0.4,3.5,1.1c0,13.4,0,27.4,0,41.3c0,4.2-0.1,8.4,0.1,12.6c0.4,7.6,3.6,13.1,12,13c8.4-0.1,11.5-5.9,11.6-13.4
	c0.2-14.1,0.1-28.1,0.1-42.2c0-3.8,0-7.6,0-11.9c31.9-3.2,60.5-12.7,85.5-31.5c41.3-31,61.3-73.7,66.8-124.1c0.7-6.6,1-13.3,1.2-20
	c0.4-12.3-3.8-16.4-16.2-16.5C1285.6,789.3,1281.2,789.3,1278.9,789.3z"/>
<path class="st1" d="M792,916.1c-8.7-8.7-17.6-17.7-25.7-25.8c241.4-241.9,482.8-483.8,724.3-725.8c7.9,8,17.1,17.2,25.7,25.8
	C1275,432.2,1033.7,673.9,792,916.1z"/>
<path class="st1" d="M1141.3,165.4c23.6,29.9,37.7,62.9,47.7,97.8c4.4,15.1,7.1,30.7,10,46.2c0.5,2.7-0.8,7.7-2.7,8.7
	c-23.2,11.5-41.2,28.5-55.5,51.6c-14.2-22.9-32.4-39.4-54.9-51.2c-2-1-3.7-5.1-3.4-7.5c7.8-50.9,23.8-98.7,54.3-140.9
	C1137.8,168.9,1139.1,167.8,1141.3,165.4z"/>
<path class="st1" d="M1281.1,813.6c6.7,69-58.1,141.5-126.8,143.1c-12.4-54.9,3.4-97.6,45.6-122.4
	C1224.7,819.7,1252.1,814.7,1281.1,813.6z"/>
<path class="st1" d="M1128.4,956.6c-67.6,0.1-133.3-73.1-127.9-141.6c53.3-2.5,105.7,22.1,126.1,69.5c0.7,1.6,1.7,3.3,1.7,4.9
	C1128.4,911.8,1128.4,934.2,1128.4,956.6z"/>
<path class="st1" d="M999.5,323.6c55.3-1,104.6,22.3,125.5,66.5c1.5,3.1,3.5,6.5,3.5,9.8c0.3,24.1,0.2,48.3,0.2,74.2
	c-3.4-3.2-5.6-5.1-7.7-7.2c-19.9-20-44.3-31.6-71.2-38.7c-4.5-1.2-9.5-3.3-12.5-6.6C1012.6,394,1001.8,360.9,999.5,323.6z"/>
<path class="st1" d="M1282.2,567.6c-1.4,32.5-10,61.1-27.6,87c-7.3,10.7-15.8,18.1-29.5,21.3c-27.4,6.5-51.1,20.9-71.1,43.7
	c-0.6-4-1.2-6.5-1.2-9c-0.1-14.8,1.1-29.6-0.3-44.3c-2.5-26.2,9.9-45.3,27.2-62.2c22.6-22.1,51.3-30.8,81.7-34.7
	C1267.8,568.8,1274.1,568.4,1282.2,567.6z"/>
<path class="st1" d="M1282.5,689.7c-2.5,40-13.6,73.8-39.5,101.9c-1.6,1.7-3.9,3.1-6.2,3.6c-31.7,7.4-59.9,21.1-84,48.6
	c0-16,0.5-28.8-0.1-41.5c-1.2-23.6,0.4-45.8,17.2-65.1c18.8-21.6,41.9-34.8,69.3-40.9C1252.8,693.3,1266.7,692,1282.5,689.7z"/>
<path class="st1" d="M1129,840.3c-23.8-23.6-51.4-37.2-82.4-44.8c-2.9-0.7-6.5-2.1-8-4.4c-10.1-16.3-20-32.7-29.3-49.5
	c-1.2-2.1,0.8-7.4,3-9.7c9.5-10.3,19.4-20.3,29.8-29.8c2.5-2.3,7.7-3.7,10.9-2.8c21.6,6.2,40.6,17.1,55.6,34.3
	c13.5,15.5,22.5,32.4,20.7,54.3C1127.9,805.3,1129,822.9,1129,840.3z"/>
<path class="st1" d="M1117.5,501.1c-16.8,16.7-33.1,33.1-49.6,49.3c-5.8,5.7-23.8,1.8-31.4-6.9c-18.8-21.4-29.5-46.6-34.4-74.5
	c-1.3-7.5-1.8-15.1-2.7-22.7C1047.8,444.8,1097.7,465.5,1117.5,501.1z"/>
<path class="st1" d="M1292.1,322.8c-46.3,46.4-92.2,92.4-138.4,138.6c-0.2-1.3-0.8-3.8-0.8-6.2c-0.1-10.2,0.6-20.4-0.2-30.5
	c-3.3-40.8,19-66,51.7-83.8C1231.6,326,1262,323.7,1292.1,322.8z"/>
<path class="st1" d="M1128.3,715.7c-19.8-13.1-39.7-26.2-58.3-38.4c18.2-18.2,38.3-38.4,58.3-58.4
	C1128.3,651.1,1128.3,684.4,1128.3,715.7z"/>
<path class="st1" d="M1279.6,465c-6.1,31.1-19.3,57-37.8,80.4c-1.6,2.1-4.1,4.2-6.6,4.8c-31.3,7.4-58.9,21.5-81.3,46.9
	C1154.6,588.1,1243.8,495.2,1279.6,465z"/>
<path class="st1" d="M1005.5,610.1c-2.2-13.5-4.5-27-7.1-42.8c16.3,2.1,30.2,3.9,44.1,5.7C1030,585.5,1018.3,597.3,1005.5,610.1z"/>
</svg>
