<?xml version="1.0" encoding="utf-8"?>
<!-- Generator: Adobe Illustrator 27.2.0, SVG Export Plug-In . SVG Version: 6.00 Build 0)  -->
<svg version="1.1" id="Capa_1" xmlns="http://www.w3.org/2000/svg" xmlns:xlink="http://www.w3.org/1999/xlink" x="0px" y="0px"
	 viewBox="0 0 1920 1080" style="enable-background:new 0 0 1920 1080;" xml:space="preserve">
<style type="text/css">
	.st0{fill:#FFFFFF;}
</style>
<path class="st0" d="M986.4,635c-61.1,0-122.3,0-183.4,0c0-128,0-256,0-384c128,0,256,0,384,0c0,128,0,256,0,384
	c-60.9,0-121.8,0-182.6,0c0.8-0.2,1.6-0.5,2.5-0.6c35.7-3.7,64.5-19.9,85.9-48.5c18.7-25,26.7-53.4,23.1-84.4
	c-1.8-15.3-5.1-30.4-7.9-45.6c-1.8-9.9-3.7-19.8-5.6-29.8c1.2-0.2,2.1-0.3,2.9-0.4c14-1.2,23.3-10.7,23.3-24.7
	c0.1-26.1,0.1-52.1,0-78.2c-0.1-14.2-10.6-24.4-24.8-24.5c-7.6-0.1-15.2-0.2-22.8,0.1c-2.9,0.1-4.3-0.8-5.5-3.5
	c-9.3-20.3-24.6-34.4-46.2-39.9c-21.5-5.5-43.5-4.4-65.3-0.9c-8.8,1.4-16.7,5.6-24.1,10.7c-3.2,2.2-3.9,5.3-2.1,8
	c1.8,2.7,5,3.2,8.3,1.3c0.6-0.4,1.2-0.8,1.9-1.2c7.8-5,16.2-8.6,25.4-9.1c12.4-0.7,24.9-1,37.4-0.6c23.1,0.8,40.5,11.7,52.2,31.6
	c0.6,1,1,2.1,1.7,3.5c-3.8,0-6.9-0.2-10,0c-2.5,0.2-4-0.7-5.5-2.8c-8.3-11.3-19.4-18.5-33.4-19.8c-10.9-1-21.9-0.6-32.9-0.7
	c-17.7-0.1-31.8,6.9-42.3,21.3c-0.6,0.8-1.6,1.8-2.5,1.9c-3.9,0.2-7.9,0.1-11.9,0.1c0-0.6-0.1-0.9,0-1.1c0.9-1.8,1.9-3.5,2.8-5.3
	c1.6-3.1,0.8-6.2-1.9-7.8c-2.7-1.6-5.8-0.9-7.7,2.2c-1.9,3.1-3.6,6.3-5,9.6c-0.8,2-1.9,2.5-3.9,2.5c-8.2-0.1-16.5-0.2-24.7,0
	c-13.2,0.2-23.8,10.3-23.9,23.4c-0.2,26.9-0.2,53.9,0,80.8c0.1,12.4,9.9,22.1,22.2,23.1c1.3,0.1,2.6,0.3,4.1,0.4
	c-3.4,18.2-6.5,36-10.1,53.7c-3.6,17.8-5.5,35.6-2.6,53.8c7.2,45.7,43.1,85.7,87.8,97.1C970.9,632.5,978.7,633.5,986.4,635z"/>
<path d="M986.4,635c-7.7-1.5-15.5-2.5-23-4.4c-44.7-11.3-80.6-51.3-87.8-97.1c-2.9-18.2-1-36,2.6-53.8c3.6-17.7,6.7-35.5,10.1-53.7
	c-1.5-0.2-2.8-0.3-4.1-0.4c-12.3-1-22-10.8-22.2-23.1c-0.2-26.9-0.2-53.9,0-80.8c0.1-13,10.8-23.1,23.9-23.4
	c8.2-0.2,16.5-0.1,24.7,0c2,0,3.1-0.5,3.9-2.5c1.4-3.3,3.1-6.5,5-9.6c1.9-3.1,5-3.8,7.7-2.2c2.7,1.6,3.4,4.7,1.9,7.8
	c-0.9,1.8-1.9,3.5-2.8,5.3c-0.1,0.2,0,0.5,0,1.1c4,0,7.9,0.1,11.9-0.1c0.9,0,1.9-1,2.5-1.9c10.5-14.3,24.7-21.4,42.3-21.3
	c11,0.1,22-0.3,32.9,0.7c14,1.3,25.1,8.5,33.4,19.8c1.5,2.1,3,2.9,5.5,2.8c3.1-0.2,6.2,0,10,0c-0.7-1.4-1.1-2.5-1.7-3.5
	c-11.7-19.9-29.1-30.7-52.2-31.6c-12.4-0.5-24.9-0.1-37.4,0.6c-9.2,0.5-17.6,4.2-25.4,9.1c-0.6,0.4-1.2,0.8-1.9,1.2
	c-3.3,1.9-6.5,1.4-8.3-1.3c-1.8-2.8-1.1-5.8,2.1-8c7.3-5.1,15.3-9.3,24.1-10.7c21.8-3.5,43.8-4.7,65.3,0.9
	c21.6,5.5,36.9,19.6,46.2,39.9c1.2,2.7,2.6,3.6,5.5,3.5c7.6-0.2,15.2-0.1,22.8-0.1c14.2,0.1,24.7,10.3,24.8,24.5
	c0.2,26.1,0.1,52.1,0,78.2c-0.1,14-9.3,23.5-23.3,24.7c-0.9,0.1-1.7,0.2-2.9,0.4c1.9,10,3.8,19.9,5.6,29.8
	c2.7,15.2,6.1,30.3,7.9,45.6c3.6,31.1-4.4,59.5-23.1,84.4c-21.4,28.6-50.2,44.8-85.9,48.5c-0.8,0.1-1.7,0.4-2.5,0.6
	C998.4,635,992.4,635,986.4,635z M995.2,424.7c2.5-2.8,4-5.1,6.1-6.5c2.3-1.6,5.2-3.3,7.9-3.4c7.8-0.5,15.7-0.2,23.6-0.1
	c4.1,0,6.5,2.3,6.4,5.7c-0.1,3.2-2.4,5.4-6.3,5.5c-4.4,0.1-8.8,0.4-13.1,0c-7-0.7-13,0.6-17.2,6.8c-0.2,0.3-0.5,0.5-0.8,0.8
	c-4.1,3.5-8.8,3.5-12.9-0.1c-1.8-1.6-3.2-3.6-5.1-4.9c-1.7-1.2-3.9-2.4-5.8-2.4c-16.8-0.2-33.7,0-50.5-0.2c-3,0-4.2,0.7-4.8,3.9
	c-3.5,19.4-7.1,38.7-10.9,58c-2.6,13.2-4.6,26.3-2.2,39.7c8,46.4,48.4,77.1,95.4,72.6c48.9-4.6,84.9-52.3,76.1-100.6
	c-3.1-17-6.3-34.1-9.5-51.1c-1.4-7.4-2.9-14.9-4.3-22.7c-2.7,0-5,0.2-7.4,0c-3-0.3-4.7-2.2-4.8-5.3c-0.1-3.2,1.7-5.1,4.8-5.6
	c1.2-0.2,2.5-0.1,3.7-0.1c13.1,0,26.2,0,39.3,0c9.6-0.1,14.6-5.1,14.6-14.5c0-25.3,0-50.6,0-76c0-9.4-5.2-14.6-14.6-14.6
	c-14.1,0-28.2,0-42.3,0c-57.6,0-115.3,0-172.9,0c-9,0-14.6,5-14.6,13.4c-0.1,26.1,0,52.1,0,78.2c0,4.6,1.5,8.6,5.5,10.8
	c2.9,1.6,6.6,2.5,9.9,2.5c27.7,0.2,55.4,0.3,83.1,0C980.8,414.3,989.5,414.2,995.2,424.7z M1079,425.9c0.1,1.4,0.2,2.2,0.3,3.1
	c3.6,19.1,7,38.2,10.8,57.3c3.1,15.4,4.7,30.8,1.5,46.4c-13.6,66.8-88.4,100.4-146.7,64.9c-35-21.3-51-53.7-46.9-94.5
	c1.9-19.1,6.6-38,10.1-57c1.2-6.6,2.4-13.2,3.7-20c-4.3,0-8.1,0-12.1,0c-0.3,1.7-0.7,3.3-1,4.8c-3.6,19.3-7.2,38.7-10.9,58
	c-2.8,14.2-3.6,28.4-1.2,42.7c11.1,66.6,78.8,107.7,143,86.8c51.3-16.7,83.2-68.9,74.3-122c-2.7-16-5.8-31.9-8.8-47.8
	c-1.4-7.5-2.8-15.1-4.3-22.6C1086.9,425.9,1083.1,425.9,1079,425.9z M1036.9,298.1c-6.3-6.4-13.1-10.6-21-11.1
	c-12.8-0.8-25.7-0.8-38.5-0.5c-7.6,0.2-14.4,3.6-20.4,8.5c-1,0.8-2.2,1.4-3.3,2c0.4,0.4,0.7,0.7,1.1,1.1
	C981.9,298.1,1008.9,298.1,1036.9,298.1z"/>
<path class="st0" d="M995.2,424.7c-5.6-10.4-14.4-10.4-23.5-10.3c-27.7,0.3-55.4,0.2-83.1,0c-3.3,0-7-0.9-9.9-2.5
	c-4-2.1-5.5-6.2-5.5-10.8c0-26.1,0-52.1,0-78.2c0-8.4,5.6-13.4,14.6-13.4c57.6,0,115.3,0,172.9,0c14.1,0,28.2,0,42.3,0
	c9.4,0,14.6,5.2,14.6,14.6c0,25.3,0,50.6,0,76c0,9.4-5.1,14.5-14.6,14.5c-13.1,0.1-26.2,0-39.3,0c-1.2,0-2.5-0.1-3.7,0.1
	c-3.2,0.5-4.9,2.4-4.8,5.6c0.1,3,1.7,5,4.8,5.3c2.3,0.2,4.7,0,7.4,0c1.5,7.8,3,15.2,4.3,22.7c3.2,17,6.4,34,9.5,51.1
	c8.8,48.3-27.3,96-76.1,100.6c-47,4.5-87.4-26.2-95.4-72.6c-2.3-13.4-0.3-26.6,2.2-39.7c3.8-19.3,7.4-38.7,10.9-58
	c0.6-3.2,1.8-3.9,4.8-3.9c16.8,0.1,33.7,0,50.5,0.2c2,0,4.1,1.2,5.8,2.4c1.9,1.3,3.3,3.3,5.1,4.9c4.1,3.6,8.7,3.6,12.9,0.1
	c0.3-0.2,0.6-0.5,0.8-0.8c4.2-6.2,10.2-7.5,17.2-6.8c4.3,0.4,8.7,0.2,13.1,0c3.9-0.1,6.2-2.2,6.3-5.5c0.1-3.4-2.4-5.6-6.4-5.7
	c-7.9-0.1-15.7-0.3-23.6,0.1c-2.7,0.2-5.6,1.8-7.9,3.4C999.2,419.6,997.7,421.9,995.2,424.7z M995.5,576.8
	c38.4,0.2,68.6-34.4,63-72.4c-4.4-29.8-27.5-51.7-57.8-54.8c-28.2-2.8-56,15.2-65.5,42.7c-5.8,16.8-4.6,33.4,3.2,49.4
	c1.9,3.8,5.7,5,8.6,2.8c3.1-2.3,2.7-5.3,1.2-8.4c-5-10.2-6.3-20.9-4.5-32c4.6-28.5,33.1-48.2,61.7-42.5c29,5.7,47.9,34.5,41.3,62.8
	c-8.5,36.8-49.8,52.9-81.4,31.8c-4.2-2.8-7.4-2.6-9.4,0.6c-1.9,3-0.9,5.9,3.1,8.7C969.9,573,982.1,576.8,995.5,576.8z M1059.6,362.1
	C1059.6,362.1,1059.6,362.1,1059.6,362.1c0,6-0.1,12,0,17.9c0.3,12.7,10.3,22.3,22.8,22.4c12.7,0.1,22.8-9.7,23-22.5
	c0.2-11.8,0.2-23.7,0-35.5c-0.2-12.8-10.3-22.8-22.8-22.9c-12.6-0.1-22.8,10-23.1,23C1059.5,350.4,1059.6,356.2,1059.6,362.1z
	 M896.4,367.7c4,0,7.5,0,10.9,0c7.8,0.1,12.5,4.7,12.6,12.6c0.1,5.2-0.1,10.5,0,15.7c0.1,4.1,2.3,6.4,5.8,6.3
	c3.4-0.1,5.3-2.3,5.4-6.3c0.1-3.7-0.1-7.5,0.1-11.2c0.5-8.7-0.9-16.7-8-22.9c6.7-6,8.4-13.4,8-21.6c-0.2-4,0-8,0-12
	c0-4.4-2.2-7-5.6-6.9c-3.4,0-5.5,2.7-5.6,7c-0.1,5.4,0.1,10.7-0.1,16.1c-0.1,6-3.9,10.7-9.8,11.5c-4.4,0.5-8.9,0.1-13.7,0.1
	c0-1.5,0-2.8,0-4.2c0-8.1,0-16.2,0-24.3c0-3.1-1.5-5.7-4.6-5.9c-2-0.1-4.2,1.4-5.9,2.8c-0.8,0.7-0.7,2.8-0.7,4.3
	c0,22.1,0,44.2,0,66.2c0,0.9,0,1.8,0.1,2.6c0.5,2.6,2,4.2,4.7,4.6c2.8,0.3,5-0.8,5.9-3.5c0.5-1.4,0.5-2.9,0.5-4.4
	C896.4,385.6,896.4,376.9,896.4,367.7z M954.6,332.7c9.6,0,18.8,0,28,0c4.1,0,6.6-2.1,6.7-5.4c0.1-3.3-2.4-5.7-6.4-5.8
	c-11.1-0.1-22.2-0.1-33.3,0c-4.1,0-6.4,2.1-6.4,6.2c-0.1,22.8-0.1,45.6,0,68.4c0,4.2,2,6.2,6.2,6.3c11.2,0.1,22.4,0.1,33.7,0
	c3.8,0,6.2-2.3,6.2-5.5c0-3.2-2.4-5.5-6.2-5.6c-8.1-0.1-16.2,0-24.3,0c-1.3,0-2.7,0-4.2,0c0-8,0-15.6,0-23.6c3.8,0,7.4,0.1,10.9,0
	c3.9-0.1,6.5-2.6,6.3-5.9c-0.2-3.2-2.5-5.2-6.4-5.3c-3.6-0.1-7.1,0-10.9,0C954.6,348.4,954.6,340.8,954.6,332.7z M1030,332.7
	c4.1,0,7.6,0.1,11.1,0c3.9-0.1,6.2-2.1,6.4-5.4c0.1-3.3-2.4-5.8-6.4-5.8c-11.1-0.1-22.2-0.1-33.3,0c-4,0-6.5,2.4-6.4,5.8
	c0.1,3.3,2.6,5.4,6.7,5.4c3.4,0,6.9,0,10.7,0c0,2,0,3.4,0,4.9c0,18.8,0,37.6,0,56.4c0,1.5,0,3,0.4,4.4c0.8,2.8,2.8,4.1,5.6,3.9
	c2.9-0.2,4.6-1.8,5-4.6c0.2-1.2,0.1-2.5,0.1-3.7c0-18.9,0-37.9,0-56.8C1030,335.8,1030,334.5,1030,332.7z"/>
<path class="st0" d="M1079,425.9c4.1,0,7.8,0,12,0c1.4,7.6,2.9,15.1,4.3,22.6c3,15.9,6.1,31.8,8.8,47.8c8.8,53.1-23,105.2-74.3,122
	c-64.2,21-131.9-20.2-143-86.8c-2.4-14.3-1.6-28.5,1.2-42.7c3.7-19.3,7.3-38.7,10.9-58c0.3-1.6,0.6-3.2,1-4.8c4,0,7.8,0,12.1,0
	c-1.3,6.9-2.5,13.5-3.7,20c-3.4,19-8.1,37.9-10.1,57c-4.1,40.9,11.9,73.3,46.9,94.5c58.3,35.4,133,1.9,146.7-64.9
	c3.2-15.6,1.6-31-1.5-46.4c-3.8-19.1-7.3-38.2-10.8-57.3C1079.2,428.1,1079.2,427.3,1079,425.9z"/>
<path class="st0" d="M1036.9,298.1c-28,0-55.1,0-82.1,0c-0.4-0.4-0.7-0.7-1.1-1.1c1.1-0.7,2.3-1.2,3.3-2c6-4.8,12.8-8.2,20.4-8.5
	c12.8-0.4,25.7-0.3,38.5,0.5C1023.9,287.5,1030.6,291.8,1036.9,298.1z"/>
<path d="M995.5,576.8c-13.4,0-25.5-3.8-36.5-11.4c-4-2.8-5-5.7-3.1-8.7c2-3.2,5.2-3.4,9.4-0.6c31.5,21.1,72.9,5,81.4-31.8
	c6.5-28.4-12.4-57.1-41.3-62.8c-28.5-5.6-57.1,14.1-61.7,42.5c-1.8,11.2-0.5,21.9,4.5,32c1.5,3.1,1.9,6-1.2,8.4
	c-2.9,2.2-6.7,1-8.6-2.8c-7.8-16-9-32.5-3.2-49.4c9.5-27.5,37.3-45.6,65.5-42.7c30.3,3.1,53.4,25,57.8,54.8
	C1064,542.3,1033.9,577,995.5,576.8z"/>
<path d="M1059.6,362.1c0-5.9-0.1-11.7,0-17.6c0.3-13,10.4-23.1,23.1-23c12.6,0.1,22.6,10,22.8,22.9c0.2,11.8,0.2,23.7,0,35.5
	c-0.2,12.8-10.3,22.6-23,22.5c-12.5-0.1-22.5-9.7-22.8-22.4C1059.5,374,1059.6,368,1059.6,362.1
	C1059.6,362.1,1059.6,362.1,1059.6,362.1z M1070.8,361.8c0,5.9-0.1,11.7,0,17.6c0.1,6.9,5.2,11.9,11.8,11.8c6.6,0,11.6-5,11.7-12
	c0.1-11.5,0.1-22.9,0-34.4c-0.1-6.9-5.1-12-11.6-12.1c-6.6-0.1-11.7,5.2-11.8,12.3C1070.7,350.6,1070.8,356.2,1070.8,361.8z"/>
<path d="M896.4,367.7c0,9.2,0,18,0,26.7c0,1.5-0.1,3-0.5,4.4c-0.9,2.7-3,3.9-5.9,3.5c-2.7-0.3-4.3-1.9-4.7-4.6
	c-0.1-0.9-0.1-1.7-0.1-2.6c0-22.1,0-44.2,0-66.2c0-1.5-0.1-3.5,0.7-4.3c1.6-1.4,3.9-2.9,5.9-2.8c3.1,0.1,4.6,2.8,4.6,5.9
	c0.1,8.1,0,16.2,0,24.3c0,1.3,0,2.7,0,4.2c4.8,0,9.3,0.4,13.7-0.1c5.8-0.7,9.6-5.5,9.8-11.5c0.1-5.4,0-10.7,0.1-16.1
	c0-4.4,2.2-7,5.6-7c3.4,0,5.6,2.6,5.6,6.9c0,4-0.2,8,0,12c0.4,8.2-1.3,15.6-8,21.6c7.1,6.2,8.5,14.2,8,22.9c-0.2,3.7,0,7.5-0.1,11.2
	c-0.1,4-2,6.2-5.4,6.3c-3.5,0.1-5.7-2.2-5.8-6.3c-0.1-5.2,0-10.5,0-15.7c-0.1-7.9-4.7-12.5-12.6-12.6
	C903.9,367.7,900.4,367.7,896.4,367.7z"/>
<path d="M954.6,332.7c0,8.1,0,15.7,0,23.8c3.7,0,7.3,0,10.9,0c3.9,0.1,6.3,2.1,6.4,5.3c0.2,3.3-2.4,5.8-6.3,5.9
	c-3.6,0.1-7.2,0-10.9,0c0,8,0,15.5,0,23.6c1.5,0,2.9,0,4.2,0c8.1,0,16.2-0.1,24.3,0c3.8,0.1,6.2,2.4,6.2,5.6c0,3.2-2.4,5.5-6.2,5.5
	c-11.2,0.1-22.4,0.1-33.7,0c-4.2,0-6.2-2-6.2-6.3c-0.1-22.8-0.1-45.6,0-68.4c0-4.1,2.2-6.2,6.4-6.2c11.1-0.1,22.2-0.1,33.3,0
	c4,0,6.5,2.4,6.4,5.8c-0.1,3.3-2.6,5.4-6.7,5.4C973.4,332.7,964.2,332.7,954.6,332.7z"/>
<path d="M1030,332.7c0,1.8,0,3.2,0,4.5c0,18.9,0,37.9,0,56.8c0,1.2,0.1,2.5-0.1,3.7c-0.4,2.8-2.2,4.4-5,4.6
	c-2.8,0.2-4.9-1.1-5.6-3.9c-0.4-1.4-0.4-2.9-0.4-4.4c0-18.8,0-37.6,0-56.4c0-1.5,0-2.9,0-4.9c-3.8,0-7.2,0-10.7,0
	c-4.1-0.1-6.6-2.1-6.7-5.4c-0.1-3.3,2.4-5.7,6.4-5.8c11.1-0.1,22.2-0.1,33.3,0c3.9,0,6.5,2.5,6.4,5.8c-0.1,3.3-2.5,5.3-6.4,5.4
	C1037.6,332.7,1034.1,332.7,1030,332.7z"/>
<path class="st0" d="M1070.8,361.8c0-5.6-0.1-11.2,0-16.8c0.1-7.1,5.3-12.3,11.8-12.3c6.5,0.1,11.6,5.2,11.6,12.1
	c0.1,11.5,0.1,22.9,0,34.4c-0.1,7-5,11.9-11.7,12c-6.6,0-11.7-4.9-11.8-11.8C1070.7,373.5,1070.8,367.6,1070.8,361.8z"/>
</svg>
