<?xml version="1.0" encoding="utf-8"?>
<!-- Generator: Adobe Illustrator 27.2.0, SVG Export Plug-In . SVG Version: 6.00 Build 0)  -->
<svg version="1.1" id="Capa_1" xmlns="http://www.w3.org/2000/svg" xmlns:xlink="http://www.w3.org/1999/xlink" x="0px" y="0px"
	 viewBox="0 0 2000 2000" style="enable-background:new 0 0 2000 2000;" xml:space="preserve">
<style type="text/css">
	.st0{fill:#F8A608;}
	.st1{fill:#006767;}
</style>
<ellipse class="st0" cx="1495.6" cy="995.5" rx="27.3" ry="75"/>
<ellipse class="st0" cx="724.8" cy="1027.3" rx="23.5" ry="30.4"/>
<path class="st0" d="M1213.2,963.9c-0.8,24.1-8.3,44.6-22.5,43c-12.9-1.5-24.7-19.6-22.5-43c0.7-20.9,9.2-40.9,22.5-43
	C1205.3,921,1214,940.9,1213.2,963.9z"/>
<g>
	<g transform="translate(297.999704, 854.540066)">
		<g>
			<path class="st1" d="M323,136.7c0.9-4.1,2.7-6.6,5.2-7.4c2.5-0.8,4.8-0.3,6.9,1.4c2.1,1.7,2.8,4.3,2.1,7.8
				c-1.9,17.1-8.2,32.5-18.8,46.1c-10.6,13.6-23.9,24.4-39.9,32.3c-16,7.9-33.2,11.9-51.5,11.9c-17.4,0-33.9-3.2-49.4-9.5
				c-15.5-6.3-29.1-15-40.9-26.1c-11.7-11.1-20.9-23.9-27.5-38.5c-6.6-14.6-10-30.2-10-47c0-16.8,3.3-32.4,10-47
				c6.7-14.6,15.8-27.3,27.5-38.2c11.7-10.9,25.3-19.6,40.9-25.9c15.5-6.3,32-9.5,49.4-9.5c15.5,0,30.5,3,45.1,9
				c14.6,6,26.8,14,36.8,24c10,10,16.2,21.1,18.8,33.2c2.5,12.2-0.5,24.5-9,36.8c-5.1,7-12,13.1-20.7,18.3
				c-8.7,5.2-17.8,9-27.3,11.4s-18.3,2.9-26.4,1.4c-8.1-1.4-13.9-5.2-17.6-11.4c-3.6-6.2-3.9-15.1-0.7-26.8
				c5.7-20.9,7.8-37.1,6.4-48.7c-1.4-11.6-5.2-19.3-11.4-23.3c-6.2-4-13.7-4.7-22.6-2.1c-9.2,2.5-16.3,9.4-21.4,20.6
				c-5.1,11.2-7.6,24.9-7.6,41.1c0,16.2,2.8,33.2,8.5,51.3c5.4,16.8,13.4,29.8,24,39.2c10.6,9.3,22.2,15.5,34.7,18.5
				c12.5,3,24.8,3.2,36.8,0.5c12-2.7,22.6-7.8,31.6-15.2C314.2,157.5,320.2,148.1,323,136.7z"/>
		</g>
	</g>
</g>
<g>
	<g transform="translate(484.282813, 854.540066)">
		<g>
			<path class="st1" d="M351.9,218.8c2.5,1.9,3.5,4,2.9,6.4c-0.6,2.4-2.2,3.6-4.8,3.6h-48.4c-8.6,0-15.4-1.9-20.7-5.7
				c-5.2-3.8-9-7.6-11.4-11.4c-2.4-3.8-3.6-5.7-3.6-5.7c-5.1,7-11.7,12.5-20,16.6c-8.2,4.1-17.1,6.2-26.6,6.2
				c-10.4,0-20.1-2.5-29-7.6c-8.9-5.1-15.9-11.9-21.1-20.4c-5.2-8.6-7.8-17.9-7.8-28c0-10.4,2.6-19.9,7.8-28.2
				c5.2-8.4,12.3-15.1,21.1-20.2c8.9-5.1,18.5-7.6,29-7.6c9.5,0,18.4,2.1,26.6,6.2c8.2,4.1,14.9,9.6,20,16.6v-14.2
				c0-9.2-1.1-18.3-3.3-27.3c-2.2-9-5.4-16.5-9.5-22.6c-4.1-6-9-9-14.7-9c-3.5,0-5.3,2.4-5.5,7.1c-0.2,4.8,1.2,10.3,4.1,16.6
				c1.9,4.8,1.1,8.8-2.4,12.1c-3.5,3.3-8.4,5.9-14.7,7.6c-6.3,1.7-12.9,2.4-19.7,2.1c-6.8-0.3-12.6-1.8-17.3-4.5
				c-4.8-2.7-7.1-6.7-7.1-12.1c0-10.1,5.8-19.7,17.3-28.7c11.6-9,28.3-13.5,50.1-13.5c17.1,0,32.4,3.6,45.8,10.9
				c13.5,7.3,24.1,17.4,31.8,30.4c7.8,13,11.6,28,11.6,45.1v39c0,8.9,1.2,16.2,3.6,22.1C338.3,206.4,343.6,212.5,351.9,218.8z
				 M240.3,203.2c6.7,0,12.3-3,16.9-9c4.6-6,6.9-13.1,6.9-21.4c0-8.2-2.3-15.4-6.9-21.4c-4.6-6-10.2-9-16.9-9c-6.3,0-11.8,3-16.4,9
				c-4.6,6-6.9,13.1-6.9,21.4c0,8.2,2.3,15.4,6.9,21.4C228.5,200.2,233.9,203.2,240.3,203.2z"/>
		</g>
	</g>
</g>
<g>
	<g transform="translate(637.440982, 854.540066)">
		<g>
			<path class="st1" d="M443.3,218.8c2.5,1.9,3.5,4,2.8,6.4c-0.6,2.4-2.2,3.6-4.7,3.6h-94.5c-5.1,0-7.7-1.4-7.8-4.3
				c-0.2-2.8,0.9-5.4,3.1-7.6c6-5.4,10.4-13.7,13.1-24.9c2.7-11.2,4-23.5,3.8-36.8c-0.2-13.3-1.7-26-4.5-38.2
				c-2.8-12.2-6.6-22.2-11.4-30.2S332.6,74.9,326,74.9c-4.8,0-9.4,3.1-14,9.3c-4.6,6.2-8.9,13.8-13,23c-2.5,30.1-2.3,54.6,0.7,73.4
				c3,18.8,8,30.9,15,36.3c2.5,1.9,3.7,4.4,3.3,7.4c-0.3,3-3,4.5-8.1,4.5h-92.6c-2.2,0-3.7-1.2-4.3-3.6c-0.6-2.4,0.2-4.5,2.4-6.4
				c8.2-6.3,13.5-12.4,15.9-18.3c2.4-5.9,3.6-13.2,3.6-22.1v-39.9c0-8.9-1.2-16.3-3.6-22.3c-2.4-6-7.7-12.2-15.9-18.5
				c-2.2-1.9-3-3.9-2.4-6.2c0.6-2.2,2.1-3.3,4.3-3.3c11.4,0,21.3-1.6,29.7-4.7c8.4-3.2,15.8-6.9,22.1-11.2
				c6.3-4.3,11.9-8.2,16.9-11.9c4.9-3.6,9.6-5.9,14-6.9c5.1-0.9,7.2,0,6.4,2.9c-0.8,2.8-1.5,5.9-2.1,9l-1.4,10
				c4.8-6.3,10.2-11.6,16.4-15.9c6.2-4.3,13.1-6.4,20.7-6.4c17.1,0,31.9,4.2,44.4,12.6c12.5,8.4,22.2,19.7,29.2,34
				c7,14.2,10.5,30.1,10.5,47.5v31.4c0,8.9,1.2,16.2,3.6,22.1C429.8,206.4,435.1,212.5,443.3,218.8z"/>
		</g>
	</g>
</g>
<g>
	<g transform="translate(821.230814, 854.540066)">
		<g>
			<path class="st1" d="M442.8,174.2c2.5-3.2,5.2-3.4,8.1-0.7c2.8,2.7,3.5,5.3,1.9,7.8c-7.9,13.9-19.3,25.3-34.2,34.2
				c-14.9,8.9-31.5,13.3-49.9,13.3c-17.4,0-33.3-4-47.7-11.9c-14.4-7.9-25.9-18.5-34.4-31.8c-8.5-13.3-12.8-28-12.8-44.2
				c0-16.2,4.3-30.9,12.8-44.2c8.6-13.3,20.3-23.9,35.1-31.8c14.9-7.9,31.8-11.9,50.8-11.9c12.3,0,24.4,2.5,36.3,7.6
				c11.9,5.1,21.6,11.9,29.2,20.4c7.6,8.5,11.4,18,11.4,28.5c0,10.1-3.1,19.5-9.3,28c-6.2,8.5-14.3,15.3-24.5,20.4
				c-10.1,5.1-21.4,7.6-33.7,7.6c-6,0-11.8-0.6-17.3-1.9c-5.5-1.3-10.8-3-15.9-5.2c2.5,7.9,6.5,15,11.9,21.1
				c5.4,6.2,12.8,10.7,22.3,13.5c6,1.6,12.8,2,20.4,1.2c7.6-0.8,15-2.9,22.1-6.4C432.6,184.5,438.4,179.9,442.8,174.2z M370.2,66.4
				c-2,0.1-3.4,0.9-5.4,2c-2.6,1.5-4.2,3.2-5.5,4.6c-0.4,0.4-1.9,2.1-3.5,4.5c-1.8,2.7-2.8,5-3.6,6.9c-1.3,3.2-2.5,7.4-2.5,7.4
				l-1.7,8.2c-0.9,5.9-1,10.2-1,11.4c0,1.3,0,2.2,0,3c0.2,4.8,0.3,9,1.5,14c1.2,4.9,3,8.2,3.3,9c1,1.9,2,3.3,2.4,4
				c1.2,1.7,2.3,3.4,4.1,5.1c1.2,1.1,3.1,2.9,6.1,4.3c1.6,0.7,3.4,1.5,5.8,1.5c3.8,0,6.6-2.1,8.5-3.5c2.1-1.6,3.4-3.2,4.1-4.1
				c0.7-0.9,1.7-2.3,3-4.9c2.1-4.2,3-7.8,3.7-10.5c1.2-4.5,1.6-8.1,1.9-10.2c0.2-1.6,0.6-5.1,0.6-9.5c0-0.6,0-3.3-0.2-6.9
				c-0.3-5-0.5-8.5-1.7-13.2c-1.1-4.3-2.4-7.1-3.2-8.5c-0.5-0.9-0.9-1.6-1.1-2c-1-1.7-2.3-3.9-4.3-6.1c-0.8-0.8-2.1-2.2-4.1-3.6
				C375.2,67.8,373,66.3,370.2,66.4z"/>
		</g>
	</g>
</g>
<g>
	<g transform="translate(963.703517, 854.540066)">
		<g>
			<path class="st1" d="M425.2,216.9c2.5,1.9,3.7,4.4,3.3,7.4c-0.3,3-3.2,4.5-8.5,4.5h-94c-2.2,0-3.7-1.2-4.3-3.6
				c-0.6-2.4,0.2-4.5,2.4-6.4c8.2-6.3,13.5-12.4,15.9-18.3c2.4-5.9,3.6-13.2,3.6-22.1V71.6c0-8.9-1.2-16.3-3.6-22.3
				c-2.4-6-7.7-12-15.9-18c-2.2-1.9-3-4-2.4-6.2c0.6-2.2,2.1-3.3,4.3-3.3c11.4,0,21.4-1.6,29.9-4.8c8.6-3.2,16.1-7,22.6-11.4
				c6.5-4.4,12.3-8.4,17.3-11.9c5.1-3.5,9.8-5.7,14.2-6.6c5.1-1.3,7.3-0.4,6.6,2.6c-0.6,3-1.3,6.1-1.9,9.2
				c-4.1,22.8-6.7,46.2-7.9,70.3c-1.1,24.1-1,46.7,0.2,67.9c1.3,21.2,3.5,38.9,6.6,53.2C417,204.6,420.8,213.4,425.2,216.9z"/>
		</g>
	</g>
</g>
<g>
	<g transform="translate(1050.611865, 854.540066)">
		<g>
			<path class="st1" d="M445.2,53.1c17.4,0,33.3,4,47.5,11.9c14.2,7.9,25.6,18.5,34.2,31.8c8.6,13.3,12.8,28,12.8,44.2
				c0,16.1-4.3,30.9-12.8,44.2c-8.5,13.3-19.9,23.9-34.2,31.8c-14.2,7.9-30.1,11.9-47.5,11.9c-17.4,0-33.3-4-47.7-11.9
				c-14.4-7.9-25.9-18.5-34.4-31.8c-8.5-13.3-12.8-28-12.8-44.2c0-16.2,4.3-30.9,12.8-44.2c8.6-13.3,20-23.9,34.4-31.8
				C411.9,57.1,427.8,53.1,445.2,53.1z M445.2,215.5c5.1,0,9.6-3.4,13.5-10.2c4-6.8,7.2-15.8,9.7-27.1c2.5-11.2,3.8-23.7,3.8-37.3
				c0-13.9-1.3-26.5-3.8-37.8c-2.5-11.2-5.8-20.2-9.7-26.8c-4-6.7-8.5-10-13.5-10c-5.1,0-9.7,3.3-13.8,10c-4.1,6.6-7.4,15.6-10,26.8
				c-2.5,11.2-3.8,23.8-3.8,37.8c0,13.6,1.3,26,3.8,37.3c2.5,11.2,5.9,20.3,10,27.1C435.5,212.1,440.1,215.5,445.2,215.5z"/>
		</g>
	</g>
</g>
</svg>
