<?xml version="1.0" encoding="utf-8"?>
<!-- Generator: Adobe Illustrator 27.2.0, SVG Export Plug-In . SVG Version: 6.00 Build 0)  -->
<svg version="1.1" id="Capa_1" xmlns="http://www.w3.org/2000/svg" xmlns:xlink="http://www.w3.org/1999/xlink" x="0px" y="0px"
	 viewBox="0 0 2000 2000" style="enable-background:new 0 0 2000 2000;" xml:space="preserve">
<style type="text/css">
	.st0{clip-path:url(#SVGID_00000034054651372738992110000005820273529739709597_);}
	.st1{clip-path:url(#SVGID_00000078752571024056139210000015362825861462731424_);}
	.st2{clip-path:url(#SVGID_00000090295598117598650110000005139308306942223282_);}
	.st3{fill:#F8A608;}
	.st4{clip-path:url(#SVGID_00000039097662551689089610000015045067036470521790_);}
	.st5{clip-path:url(#SVGID_00000041276441987550487840000013330299364810803073_);}
	.st6{clip-path:url(#SVGID_00000149343185443478252120000001915537463368064923_);}
	.st7{clip-path:url(#SVGID_00000148658792943362186960000013336954641014317981_);}
	.st8{clip-path:url(#SVGID_00000101076645699121709650000008761234841137342611_);}
	.st9{clip-path:url(#SVGID_00000178922824899662308420000017799545170510354607_);}
	.st10{fill:#006767;}
	.st11{fill:#253439;}
</style>
<g>
	<g>
		<g>
			<g>
				<g transform="matrix(1, 0, 0, 1, 874, 691)">
					<g>
						<defs>
							<rect id="SVGID_1_" x="-175.4" y="287.8" width="52" height="96"/>
						</defs>
						<clipPath id="SVGID_00000041979426189456556460000008650238872528207751_">
							<use xlink:href="#SVGID_1_"  style="overflow:visible;"/>
						</clipPath>
						<g style="clip-path:url(#SVGID_00000041979426189456556460000008650238872528207751_);">
							<g>
								<defs>
									<rect id="SVGID_00000128462668332933886520000000591428165157629875_" x="-175" y="288.8" width="51.5" height="95.1"/>
								</defs>
								<clipPath id="SVGID_00000050656940525845953200000017825054342433933184_">
									<use xlink:href="#SVGID_00000128462668332933886520000000591428165157629875_"  style="overflow:visible;"/>
								</clipPath>
								<g style="clip-path:url(#SVGID_00000050656940525845953200000017825054342433933184_);">
									<g>
										<defs>
											<path id="SVGID_00000094596113922290302120000004957524495034737851_" d="M-123.5,358.1c0,14.2-11.5,25.8-25.8,25.8
												c-14.2,0-25.8-11.5-25.8-25.8v-43.5c0-14.2,11.5-25.8,25.8-25.8c14.2,0,25.8,11.5,25.8,25.8V358.1z"/>
										</defs>
										<clipPath id="SVGID_00000007408139186664598810000011809389251559941260_">
											<use xlink:href="#SVGID_00000094596113922290302120000004957524495034737851_"  style="overflow:visible;"/>
										</clipPath>
										<g style="clip-path:url(#SVGID_00000007408139186664598810000011809389251559941260_);">
											<path class="st3" d="M-123.5,288.8v95H-175v-95H-123.5z"/>
										</g>
									</g>
								</g>
							</g>
						</g>
					</g>
				</g>
			</g>
		</g>
	</g>
</g>
<g>
	<g>
		<g>
			<g>
				<g transform="matrix(1, 0, 0, 1, 874, 691)">
					<g>
						<defs>
							<rect id="SVGID_00000021801190729077590690000005915021904140667038_" x="290.5" y="224.4" width="52" height="96"/>
						</defs>
						<clipPath id="SVGID_00000025440602234499863690000004484454361593311141_">
							<use xlink:href="#SVGID_00000021801190729077590690000005915021904140667038_"  style="overflow:visible;"/>
						</clipPath>
						<g style="clip-path:url(#SVGID_00000025440602234499863690000004484454361593311141_);">
							<g>
								<defs>
									<rect id="SVGID_00000124843908929426915050000015747954285348070298_" x="290.9" y="225.4" width="51.5" height="95.1"/>
								</defs>
								<clipPath id="SVGID_00000106869924351546739640000011005221684514173068_">
									<use xlink:href="#SVGID_00000124843908929426915050000015747954285348070298_"  style="overflow:visible;"/>
								</clipPath>
								<g style="clip-path:url(#SVGID_00000106869924351546739640000011005221684514173068_);">
									<g>
										<defs>
											<path id="SVGID_00000178913284241550864640000007813794132033867655_" d="M342.4,294.7c0,14.2-11.5,25.8-25.8,25.8
												s-25.8-11.5-25.8-25.8v-43.5c0-14.2,11.5-25.8,25.8-25.8s25.8,11.5,25.8,25.8V294.7z"/>
										</defs>
										<clipPath id="SVGID_00000070810234221951401460000002650341272795170697_">
											<use xlink:href="#SVGID_00000178913284241550864640000007813794132033867655_"  style="overflow:visible;"/>
										</clipPath>
										<g style="clip-path:url(#SVGID_00000070810234221951401460000002650341272795170697_);">
											<path class="st3" d="M342.4,225.4v95h-51.5v-95H342.4z"/>
										</g>
									</g>
								</g>
							</g>
						</g>
					</g>
				</g>
			</g>
		</g>
	</g>
</g>
<g>
	<g>
		<g>
			<g>
				<g transform="matrix(1, 0, 0, 1, 1091, 688)">
					<g>
						<defs>
							<rect id="SVGID_00000054974024602859000970000012496633776063804842_" x="363.7" y="229.3" width="76" height="161.3"/>
						</defs>
						<clipPath id="SVGID_00000029021497524382325720000013447160658932613760_">
							<use xlink:href="#SVGID_00000054974024602859000970000012496633776063804842_"  style="overflow:visible;"/>
						</clipPath>
						<g style="clip-path:url(#SVGID_00000029021497524382325720000013447160658932613760_);">
							<g>
								<defs>
									<rect id="SVGID_00000026882228793072333450000011550429828187331970_" x="364.5" y="229.5" width="74.9" height="160.6"/>
								</defs>
								<clipPath id="SVGID_00000078762915039096465270000006741084499823586192_">
									<use xlink:href="#SVGID_00000026882228793072333450000011550429828187331970_"  style="overflow:visible;"/>
								</clipPath>
								<g style="clip-path:url(#SVGID_00000078762915039096465270000006741084499823586192_);">
									<g>
										<defs>
											<path id="SVGID_00000027591016446952144750000007648208591857263280_" d="M439.3,364.2c0,14.2-16.8,25.8-37.4,25.8
												c-20.7,0-37.4-11.5-37.4-25.8v-109c0-14.2,16.8-25.8,37.4-25.8c20.7,0,37.4,11.5,37.4,25.8V364.2z"/>
										</defs>
										<clipPath id="SVGID_00000121255736455651761470000009630940469364627099_">
											<use xlink:href="#SVGID_00000027591016446952144750000007648208591857263280_"  style="overflow:visible;"/>
										</clipPath>
										<g style="clip-path:url(#SVGID_00000121255736455651761470000009630940469364627099_);">
											<path class="st3" d="M439.3,229.5V390h-74.9V229.5H439.3z"/>
										</g>
									</g>
								</g>
							</g>
						</g>
					</g>
				</g>
			</g>
		</g>
	</g>
</g>
<g>
	<g transform="translate(297.999704, 854.540066)">
		<g>
			<path class="st10" d="M323,136.7c0.9-4.1,2.7-6.6,5.2-7.4c2.5-0.8,4.8-0.3,6.9,1.4c2.1,1.7,2.8,4.3,2.1,7.8
				c-1.9,17.1-8.2,32.5-18.8,46.1c-10.6,13.6-23.9,24.4-39.9,32.3c-16,7.9-33.2,11.9-51.5,11.9c-17.4,0-33.9-3.2-49.4-9.5
				c-15.5-6.3-29.1-15-40.9-26.1c-11.7-11.1-20.9-23.9-27.5-38.5c-6.6-14.6-10-30.2-10-47c0-16.8,3.3-32.4,10-47
				c6.7-14.6,15.8-27.3,27.5-38.2c11.7-10.9,25.3-19.6,40.9-25.9c15.5-6.3,32-9.5,49.4-9.5c15.5,0,30.5,3,45.1,9
				c14.6,6,26.8,14,36.8,24c10,10,16.2,21.1,18.8,33.2c2.5,12.2-0.5,24.5-9,36.8c-5.1,7-12,13.1-20.7,18.3
				c-8.7,5.2-17.8,9-27.3,11.4s-18.3,2.9-26.4,1.4c-8.1-1.4-13.9-5.2-17.6-11.4c-3.6-6.2-3.9-15.1-0.7-26.8
				c5.7-20.9,7.8-37.1,6.4-48.7c-1.4-11.6-5.2-19.3-11.4-23.3c-6.2-4-13.7-4.7-22.6-2.1c-9.2,2.5-16.3,9.4-21.4,20.6
				c-5.1,11.2-7.6,24.9-7.6,41.1c0,16.2,2.8,33.2,8.5,51.3c5.4,16.8,13.4,29.8,24,39.2c10.6,9.3,22.2,15.5,34.7,18.5
				c12.5,3,24.8,3.2,36.8,0.5c12-2.7,22.6-7.8,31.6-15.2C314.2,157.5,320.2,148.1,323,136.7z"/>
		</g>
	</g>
</g>
<g>
	<g transform="translate(484.282813, 854.540066)">
		<g>
			<path class="st10" d="M351.9,218.8c2.5,1.9,3.5,4,2.9,6.4c-0.6,2.4-2.2,3.6-4.8,3.6h-48.4c-8.6,0-15.4-1.9-20.7-5.7
				c-5.2-3.8-9-7.6-11.4-11.4c-2.4-3.8-3.6-5.7-3.6-5.7c-5.1,7-11.7,12.5-20,16.6c-8.2,4.1-17.1,6.2-26.6,6.2
				c-10.4,0-20.1-2.5-29-7.6c-8.9-5.1-15.9-11.9-21.1-20.4c-5.2-8.6-7.8-17.9-7.8-28c0-10.4,2.6-19.9,7.8-28.2
				c5.2-8.4,12.3-15.1,21.1-20.2c8.9-5.1,18.5-7.6,29-7.6c9.5,0,18.4,2.1,26.6,6.2c8.2,4.1,14.9,9.6,20,16.6v-14.2
				c0-9.2-1.1-18.3-3.3-27.3c-2.2-9-5.4-16.5-9.5-22.6c-4.1-6-9-9-14.7-9c-3.5,0-5.3,2.4-5.5,7.1c-0.2,4.8,1.2,10.3,4.1,16.6
				c1.9,4.8,1.1,8.8-2.4,12.1c-3.5,3.3-8.4,5.9-14.7,7.6c-6.3,1.7-12.9,2.4-19.7,2.1c-6.8-0.3-12.6-1.8-17.3-4.5
				c-4.8-2.7-7.1-6.7-7.1-12.1c0-10.1,5.8-19.7,17.3-28.7c11.6-9,28.3-13.5,50.1-13.5c17.1,0,32.4,3.6,45.8,10.9
				c13.5,7.3,24.1,17.4,31.8,30.4c7.8,13,11.6,28,11.6,45.1v39c0,8.9,1.2,16.2,3.6,22.1C338.3,206.4,343.6,212.5,351.9,218.8z
				 M240.3,203.2c6.7,0,12.3-3,16.9-9c4.6-6,6.9-13.1,6.9-21.4c0-8.2-2.3-15.4-6.9-21.4c-4.6-6-10.2-9-16.9-9c-6.3,0-11.8,3-16.4,9
				c-4.6,6-6.9,13.1-6.9,21.4c0,8.2,2.3,15.4,6.9,21.4C228.5,200.2,233.9,203.2,240.3,203.2z"/>
		</g>
	</g>
</g>
<g>
	<g transform="translate(637.440982, 854.540066)">
		<g>
			<path class="st10" d="M443.3,218.8c2.5,1.9,3.5,4,2.8,6.4c-0.6,2.4-2.2,3.6-4.7,3.6h-94.5c-5.1,0-7.7-1.4-7.8-4.3
				c-0.2-2.8,0.9-5.4,3.1-7.6c6-5.4,10.4-13.7,13.1-24.9c2.7-11.2,4-23.5,3.8-36.8c-0.2-13.3-1.7-26-4.5-38.2
				c-2.8-12.2-6.6-22.2-11.4-30.2S332.6,74.9,326,74.9c-4.8,0-9.4,3.1-14,9.3c-4.6,6.2-8.9,13.8-13,23c-2.5,30.1-2.3,54.6,0.7,73.4
				c3,18.8,8,30.9,15,36.3c2.5,1.9,3.7,4.4,3.3,7.4c-0.3,3-3,4.5-8.1,4.5h-92.6c-2.2,0-3.7-1.2-4.3-3.6c-0.6-2.4,0.2-4.5,2.4-6.4
				c8.2-6.3,13.5-12.4,15.9-18.3c2.4-5.9,3.6-13.2,3.6-22.1v-39.9c0-8.9-1.2-16.3-3.6-22.3c-2.4-6-7.7-12.2-15.9-18.5
				c-2.2-1.9-3-3.9-2.4-6.2c0.6-2.2,2.1-3.3,4.3-3.3c11.4,0,21.3-1.6,29.7-4.7c8.4-3.2,15.8-6.9,22.1-11.2
				c6.3-4.3,11.9-8.2,16.9-11.9c4.9-3.6,9.6-5.9,14-6.9c5.1-0.9,7.2,0,6.4,2.9c-0.8,2.8-1.5,5.9-2.1,9l-1.4,10
				c4.8-6.3,10.2-11.6,16.4-15.9c6.2-4.3,13.1-6.4,20.7-6.4c17.1,0,31.9,4.2,44.4,12.6c12.5,8.4,22.2,19.7,29.2,34
				c7,14.2,10.5,30.1,10.5,47.5v31.4c0,8.9,1.2,16.2,3.6,22.1C429.8,206.4,435.1,212.5,443.3,218.8z"/>
		</g>
	</g>
</g>
<g>
	<g transform="translate(821.230814, 854.540066)">
		<g>
			<path class="st10" d="M442.8,174.2c2.5-3.2,5.2-3.4,8.1-0.7c2.8,2.7,3.5,5.3,1.9,7.8c-7.9,13.9-19.3,25.3-34.2,34.2
				c-14.9,8.9-31.5,13.3-49.9,13.3c-17.4,0-33.3-4-47.7-11.9c-14.4-7.9-25.9-18.5-34.4-31.8c-8.5-13.3-12.8-28-12.8-44.2
				c0-16.2,4.3-30.9,12.8-44.2c8.6-13.3,20.3-23.9,35.1-31.8c14.9-7.9,31.8-11.9,50.8-11.9c12.3,0,24.4,2.5,36.3,7.6
				c11.9,5.1,21.6,11.9,29.2,20.4c7.6,8.5,11.4,18,11.4,28.5c0,10.1-3.1,19.5-9.3,28c-6.2,8.5-14.3,15.3-24.5,20.4
				c-10.1,5.1-21.4,7.6-33.7,7.6c-6,0-11.8-0.6-17.3-1.9c-5.5-1.3-10.8-3-15.9-5.2c2.5,7.9,6.5,15,11.9,21.1
				c5.4,6.2,12.8,10.7,22.3,13.5c6,1.6,12.8,2,20.4,1.2c7.6-0.8,15-2.9,22.1-6.4C432.6,184.5,438.4,179.9,442.8,174.2z M370.2,66.4
				c-3.8,0-8.6,3.7-14.5,11.2c-5.8,7.4-8.8,18.7-8.8,33.9c0,12.7,2.4,22.6,7.4,29.9c4.9,7.3,10.2,10.9,15.9,10.9
				c6.3,0,11.6-4.2,15.7-12.6c4.1-8.4,6.2-18.4,6.2-30.2c0-12-2.1-22.2-6.2-30.6C381.7,70.6,376.5,66.4,370.2,66.4z"/>
		</g>
	</g>
</g>
<g>
	<g transform="translate(963.703517, 854.540066)">
		<g>
			<path class="st10" d="M425.2,216.9c2.5,1.9,3.7,4.4,3.3,7.4c-0.3,3-3.2,4.5-8.5,4.5h-94c-2.2,0-3.7-1.2-4.3-3.6
				c-0.6-2.4,0.2-4.5,2.4-6.4c8.2-6.3,13.5-12.4,15.9-18.3c2.4-5.9,3.6-13.2,3.6-22.1V71.6c0-8.9-1.2-16.3-3.6-22.3
				c-2.4-6-7.7-12-15.9-18c-2.2-1.9-3-4-2.4-6.2c0.6-2.2,2.1-3.3,4.3-3.3c11.4,0,21.4-1.6,29.9-4.8c8.6-3.2,16.1-7,22.6-11.4
				c6.5-4.4,12.3-8.4,17.3-11.9c5.1-3.5,9.8-5.7,14.2-6.6c5.1-1.3,7.3-0.4,6.6,2.6c-0.6,3-1.3,6.1-1.9,9.2
				c-4.1,22.8-6.7,46.2-7.9,70.3c-1.1,24.1-1,46.7,0.2,67.9c1.3,21.2,3.5,38.9,6.6,53.2C417,204.6,420.8,213.4,425.2,216.9z"/>
		</g>
	</g>
</g>
<g>
	<g transform="translate(1050.611865, 854.540066)">
		<g>
			<path class="st10" d="M445.2,53.1c17.4,0,33.3,4,47.5,11.9c14.2,7.9,25.6,18.5,34.2,31.8c8.6,13.3,12.8,28,12.8,44.2
				c0,16.1-4.3,30.9-12.8,44.2c-8.5,13.3-19.9,23.9-34.2,31.8c-14.2,7.9-30.1,11.9-47.5,11.9c-17.4,0-33.3-4-47.7-11.9
				c-14.4-7.9-25.9-18.5-34.4-31.8c-8.5-13.3-12.8-28-12.8-44.2c0-16.2,4.3-30.9,12.8-44.2c8.6-13.3,20-23.9,34.4-31.8
				C411.9,57.1,427.8,53.1,445.2,53.1z M445.2,215.5c5.1,0,9.6-3.4,13.5-10.2c4-6.8,7.2-15.8,9.7-27.1c2.5-11.2,3.8-23.7,3.8-37.3
				c0-13.9-1.3-26.5-3.8-37.8c-2.5-11.2-5.8-20.2-9.7-26.8c-4-6.7-8.5-10-13.5-10c-5.1,0-9.7,3.3-13.8,10c-4.1,6.6-7.4,15.6-10,26.8
				c-2.5,11.2-3.8,23.8-3.8,37.8c0,13.6,1.3,26,3.8,37.3c2.5,11.2,5.9,20.3,10,27.1C435.5,212.1,440.1,215.5,445.2,215.5z"/>
		</g>
	</g>
</g>
<g>
	<g transform="translate(427.164371, 899.896006)">
		<g>
			<path class="st11" d="M183.9,210.3h-15.4V249h-5.4v-38.7h-15.3V206h36V210.3z"/>
		</g>
	</g>
</g>
<g>
	<g transform="translate(472.766108, 899.896006)">
		<g>
			<path class="st11" d="M172.5,249h-5.4v-43h5.4V249z"/>
		</g>
	</g>
</g>
<g>
	<g transform="translate(502.092061, 899.896006)">
		<g>
			<path class="st11" d="M205.5,244.6v4.4h-28.6v-43h28v4.4h-22.6v15H203v4.4h-20.8v15H205.5z"/>
		</g>
	</g>
</g>
<g>
	<g transform="translate(546.524567, 899.896006)">
		<g>
			<path class="st11" d="M225.4,249h-8.2l-20.2-37.8c0.1,2.5,0.1,5.3,0.1,8.1c0,2.9,0,5.6,0,8.1V249h-5.4v-43h8.2l20.3,37.8
				c0-2.5-0.1-5.3-0.1-8.1c0-2.9-0.1-5.6-0.1-8.1V206h5.2L225.4,249z"/>
		</g>
	</g>
</g>
<g>
	<g transform="translate(597.083874, 899.896006)">
		<g>
			<path class="st11" d="M227.1,206.2c3.3,0.4,6.3,1.4,8.8,3.1c2.6,1.6,4.6,3.9,6,6.9c1.5,2.9,2.2,6.5,2.2,10.8
				c0,4.2-0.8,7.9-2.2,11c-1.5,3.1-3.5,5.6-6.2,7.4c-2.6,1.8-5.6,2.9-8.9,3.4c-1.1,0.1-2,0.2-2.7,0.2c-0.7,0-1.6,0-2.8,0h-12.8v-43
				h13.1c1.2,0,2.1,0,2.8,0C225.2,206,226.1,206.1,227.1,206.2z M226.3,244.3c3.7-0.6,6.6-2.3,8.8-5.3c2.2-3,3.3-7,3.3-12.1
				c0-4.8-1-8.5-3.1-11.3c-2.1-2.8-4.9-4.4-8.6-5c-0.7-0.1-1.4-0.2-2.3-0.2c-0.8,0-1.8-0.1-3-0.1h-7.4v34.3h7.1c1.1,0,2.1,0,3,0
				C224.8,244.5,225.6,244.4,226.3,244.3z"/>
		</g>
	</g>
</g>
<g>
	<g transform="translate(647.222244, 899.896006)">
		<g>
			<path class="st11" d="M247.5,233.8h-15.8l-5.1,15.2h-5.7l15.5-43h7.2l14.9,43h-5.8L247.5,233.8z M233.1,229.4H246l-6.2-19.2
				L233.1,229.4z"/>
		</g>
	</g>
</g>
<g>
	<g transform="translate(721.167779, 899.896006)">
		<g>
			<path class="st11" d="M263.3,205.1c3,0,5.5,0.6,7.5,1.7c2,1.1,3.6,2.6,4.8,4.5c1.1,1.9,1.8,4.1,2.1,6.6h-5.7
				c-0.2-2.7-1.2-4.8-2.7-6.3c-1.6-1.5-3.7-2.2-6.4-2.2c-2.3,0-4.2,0.5-5.8,1.6c-1.6,1.1-2.4,2.8-2.4,5c0,2.3,0.7,4.1,2.1,5.3
				c1.4,1.2,3.8,2.1,7.1,2.9c4.7,1.1,8.3,2.7,10.6,4.8c2.4,2.1,3.6,4.9,3.6,8.6c0,2.5-0.7,4.7-2,6.6c-1.3,1.8-3.1,3.3-5.3,4.3
				c-2.2,1-4.7,1.5-7.5,1.5c-4.7,0-8.5-1.1-11.4-3.4c-2.9-2.3-4.5-5.5-5-9.7h5.7c0.6,2.8,1.9,5,3.8,6.6c1.9,1.5,4.2,2.3,7,2.3
				c2.4,0,4.5-0.6,6.3-1.9c1.8-1.3,2.6-3,2.6-5.3c0-2.6-0.8-4.6-2.4-6s-4.3-2.5-8.1-3.4c-2.5-0.6-4.8-1.3-6.7-2.3
				c-1.9-1-3.5-2.2-4.6-3.8c-1.1-1.5-1.6-3.5-1.6-5.9c0-2.5,0.6-4.7,1.9-6.5c1.3-1.8,3-3.2,5.2-4.2
				C258.2,205.6,260.6,205.1,263.3,205.1z"/>
		</g>
	</g>
</g>
<g>
	<g transform="translate(765.506764, 899.896006)">
		<g>
			<path class="st11" d="M286.9,233.8h-15.8L266,249h-5.7l15.5-43h7.2l14.9,43H292L286.9,233.8z M272.5,229.4h12.9l-6.2-19.2
				L272.5,229.4z"/>
		</g>
	</g>
</g>
<g>
	<g transform="translate(812.371277, 899.896006)">
		<g>
			<path class="st11" d="M308.9,244.6v4.4h-28.6v-43h5.4v38.6H308.9z"/>
		</g>
	</g>
</g>
<g>
	<g transform="translate(856.24252, 899.896006)">
		<g>
			<path class="st11" d="M326.9,206v27.1c0,0.7,0,1.3,0,2c0,0.6,0,1.3-0.1,1.9c-0.2,2.4-0.9,4.5-2.1,6.5c-1.2,1.9-2.9,3.5-5.2,4.7
				c-2.3,1.2-5.2,1.8-8.7,1.8c-3.5,0-6.4-0.6-8.7-1.8c-2.3-1.2-4.1-2.7-5.2-4.7c-1.2-2-1.9-4.1-2.1-6.5c0-0.6-0.1-1.3-0.1-1.9
				c0-0.6,0-1.3,0-2V206h5.4v26.6c0,0.7,0,1.3,0,2c0,0.6,0.1,1.2,0.1,1.8c0.2,2.7,1.3,4.9,3,6.6c1.8,1.7,4.3,2.6,7.6,2.6
				c3.3,0,5.9-0.9,7.6-2.6c1.8-1.7,2.8-3.9,3-6.6c0.1-0.6,0.1-1.2,0.1-1.8c0-0.7,0-1.3,0-2V206H326.9z"/>
		</g>
	</g>
</g>
<g>
	<g transform="translate(905.118126, 899.896006)">
		<g>
			<path class="st11" d="M329.8,206.2c3.3,0.4,6.3,1.4,8.8,3.1c2.6,1.6,4.6,3.9,6,6.9c1.5,2.9,2.2,6.5,2.2,10.8
				c0,4.2-0.8,7.9-2.2,11c-1.5,3.1-3.5,5.6-6.2,7.4c-2.6,1.8-5.6,2.9-8.9,3.4c-1.1,0.1-2,0.2-2.7,0.2c-0.7,0-1.6,0-2.8,0h-12.8v-43
				h13.1c1.2,0,2.1,0,2.8,0C327.8,206,328.7,206.1,329.8,206.2z M328.9,244.3c3.7-0.6,6.6-2.3,8.8-5.3c2.2-3,3.3-7,3.3-12.1
				c0-4.8-1-8.5-3.1-11.3c-2.1-2.8-4.9-4.4-8.6-5c-0.7-0.1-1.4-0.2-2.3-0.2c-0.8,0-1.8-0.1-3-0.1h-7.4v34.3h7.1c1.1,0,2.1,0,3,0
				C327.5,244.5,328.3,244.4,328.9,244.3z"/>
		</g>
	</g>
</g>
<g>
	<g transform="translate(955.256518, 899.896006)">
		<g>
			<path class="st11" d="M350.2,233.8h-15.8l-5.1,15.2h-5.7l15.5-43h7.2l14.9,43h-5.8L350.2,233.8z M335.8,229.4h12.9l-6.2-19.2
				L335.8,229.4z"/>
		</g>
	</g>
</g>
<g>
	<g transform="translate(1002.121032, 899.896006)">
		<g>
			<path class="st11" d="M365.1,226.1c2.8,0.7,5,1.8,6.5,3.4c1.5,1.6,2.3,3.9,2.3,6.8c0,2.6-0.5,4.8-1.6,6.5c-1.1,1.7-2.4,3.1-4.1,4
				c-1.7,0.9-3.5,1.5-5.4,1.8c-1,0.2-2,0.3-2.8,0.3c-0.8,0-1.7,0-2.7,0h-13.9v-43h12.7c1,0,2,0,2.8,0c0.8,0,1.8,0.1,2.8,0.2
				c3.4,0.5,6,1.6,7.9,3.3c1.8,1.7,2.8,4.1,2.8,7.2c0,2.6-0.7,4.6-2,6.1C369.1,224.2,367.4,225.4,365.1,226.1z M348.9,210.3v14.2
				h8.3c0.6,0,1.1,0,1.7-0.1c0.5,0,1.1-0.1,1.8-0.2c2.2-0.3,3.8-1.1,4.7-2.4c0.9-1.2,1.4-2.8,1.4-4.7c0-2.1-0.6-3.7-1.9-4.8
				c-1.2-1.1-2.8-1.7-4.8-1.9c-0.5-0.1-1.1-0.1-1.7-0.1s-1.2,0-1.7,0H348.9z M361.2,244.5c2.1-0.2,3.8-0.9,5.1-2.2
				c1.3-1.3,2-3.1,2-5.4c0-2.7-0.6-4.5-1.9-5.7c-1.3-1.1-3-1.8-5.1-2.1c-0.7-0.1-1.3-0.1-1.9-0.2c-0.5,0-1-0.1-1.5-0.1h-8.9v15.8
				h9.3c0.5,0,1,0,1.5,0C360.3,244.6,360.8,244.5,361.2,244.5z"/>
		</g>
	</g>
</g>
<g>
	<g transform="translate(1048.424327, 899.896006)">
		<g>
			<path class="st11" d="M387.6,244.6v4.4H359v-43h5.4v38.6H387.6z"/>
		</g>
	</g>
</g>
<g>
	<g transform="translate(1092.295569, 899.896006)">
		<g>
			<path class="st11" d="M402.2,244.6v4.4h-28.6v-43h28v4.4H379v15h20.8v4.4H379v15H402.2z"/>
		</g>
	</g>
</g>
</svg>
